<svg width="81" height="78" viewBox="0 0 81 78" fill="none" xmlns="http://www.w3.org/2000/svg">
<path d="M79.1091 48.3764C80.6693 42.028 80.6157 35.4868 79.0969 29.3075C75.644 27.62 72.6389 24.9231 70.5732 21.3449C68.5048 17.7616 67.6715 13.8049 67.9395 9.96666C65.6673 7.79224 63.1072 5.8465 60.2623 4.204C57.4174 2.5615 54.4523 1.31724 51.4331 0.436663C48.2426 2.58874 44.3993 3.84548 40.2624 3.84492C36.1307 3.84513 32.2926 2.59103 29.1047 0.44453C22.9939 2.21882 17.3023 5.44297 12.5845 9.96838C12.8528 13.8056 12.0199 17.7623 9.95141 21.345C7.88291 24.9278 4.87282 27.6274 1.4155 29.3137C-0.144735 35.6621 -0.0911314 42.2032 1.42771 48.3825C4.88055 50.07 7.88572 52.7669 9.95136 56.3451C12.0198 59.9284 12.8531 63.8852 12.5846 67.7242C14.8573 69.8978 17.4174 71.8435 20.2623 73.486C23.1072 75.1285 26.0723 76.3728 29.0915 77.2534C32.282 75.1013 36.1253 73.8445 40.2627 73.8442C44.3944 73.844 48.2325 75.0981 51.4204 77.2446C57.5312 75.4703 63.2228 72.2462 67.9406 67.7208C67.6718 63.8844 68.5047 59.9278 70.5732 56.345C72.6417 52.7623 75.6518 50.0626 79.1091 48.3764ZM60.2628 30.1851C65.0454 27.4234 71.161 29.0628 73.9219 33.8449C76.6836 38.6275 75.0441 44.7431 70.262 47.504C65.4794 50.2657 59.3638 48.6262 56.603 43.8441C53.8413 39.0615 55.4807 32.9459 60.2628 30.1851ZM20.26 47.504C15.4774 50.2657 9.36183 48.6262 6.60099 43.8441C3.83929 39.0615 5.47875 32.9459 10.2608 30.1851C15.0434 27.4234 21.159 29.0628 23.9199 33.8449C26.6816 38.6275 25.0435 44.7428 20.26 47.504ZM22.7616 25.8531C17.9794 23.0921 16.3407 16.9764 19.1017 12.1942C21.8627 7.41201 27.9784 5.77331 32.7606 8.53431C37.5428 11.2953 39.1815 17.411 36.4205 22.1932C33.6595 26.9754 27.5438 28.6141 22.7616 25.8531ZM27.7616 70.4949C22.2384 70.4954 17.7621 66.0185 17.7625 60.4958C17.7629 54.9731 22.239 50.4963 27.7617 50.4967C33.2844 50.4971 37.7611 54.9732 37.7607 60.4959C37.7603 66.0186 33.2834 70.4948 27.7616 70.4949ZM35.9322 36.345C37.3127 33.9539 40.3712 33.1344 42.7623 34.5149C45.1534 35.8954 45.9729 38.9539 44.5924 41.345C43.2119 43.7361 40.1534 44.5556 37.7623 43.1751C35.3712 41.7946 34.5517 38.7361 35.9322 36.345ZM52.7621 27.1928C47.2394 27.1924 42.7626 22.7163 42.763 17.1936C42.7626 11.6704 47.2395 7.1942 52.7622 7.1946C58.2849 7.19501 62.7616 11.6711 62.7612 17.1938C62.7613 22.7156 58.2844 27.1918 52.7621 27.1928ZM47.7626 69.1561C42.9804 66.3951 41.3417 60.2794 44.1027 55.4972C46.8637 50.715 52.9794 49.0763 57.7616 51.8373C62.5438 54.5983 64.1825 60.714 61.4215 65.4962C58.6605 70.2784 52.5448 71.9171 47.7626 69.1561Z" fill="black"/>
<path d="M52.7621 27.1928C47.2394 27.1924 42.7626 22.7163 42.763 17.1936C42.7626 11.6704 47.2395 7.1942 52.7622 7.1946C58.2849 7.19501 62.7616 11.6711 62.7612 17.1938C62.7613 22.7156 58.2844 27.1918 52.7621 27.1928Z" fill="#A1C49D" fill-opacity="0.329412"/>
<path d="M60.2628 30.1851C65.0454 27.4234 71.161 29.0628 73.9219 33.8449C76.6836 38.6275 75.0441 44.7431 70.262 47.504C65.4794 50.2657 59.3638 48.6262 56.603 43.8441C53.8413 39.0615 55.4807 32.9459 60.2628 30.1851Z" fill="#FFA6A6"/>
</svg>
