<svg width="12" height="11" style="padding: 1px; box-sizing: border-box; scale: 0.8" viewBox="0.5 0 12 11" fill="#ffafaf" xmlns="http://www.w3.org/2000/svg">
<path d="M4.5 0.5C3 0.5 1 2.5 1 4V6C1 6 1 7.5 3 7.5V9.5L4.5 9.5L6 9.5H9V7.5C11 7.5 11 6 11 6V4C11 3 9.5 0.5 7.5 0.5H4.5Z" fill="#ffafaf"/>
<path d="M7.5 9.5V8M4.5 9.5V8M6 9.5L3 9.5V7.5C1 7.5 1 6 1 6V4C1 2.5 3 0.5 4.5 0.5H7.5C9.5 0.5 11 3 11 4C11 5 11 6 11 6C11 6 11 7.5 9 7.5V9.5H6ZM6 9.5L6 8M3 5C3 4.66667 3.2 4 4 4C4.8 4 5 4.66667 5 5M7 5C7 4.66667 7.2 4 8 4C8.8 4 9 4.66667 9 5" stroke="#e56262"/>
</svg>
